<svg xmlns="http://www.w3.org/2000/svg" width="505.646" height="505.708" viewBox="71.021 143.167 505.646 505.708"><g fill="none" stroke="#202830" stroke-width="16" stroke-miterlimit="10"><path d="M218.025 533.7c0 17.85-14.025 31.875-31.875 31.875s-31.875-14.025-31.875-31.875c0-17.851 14.025-31.875 31.875-31.875s31.875 15.3 31.875 31.875z"/><path d="M504.9 151.2L297.075 359.025c-20.4-10.2-43.35-16.575-68.85-16.575-81.6 0-149.175 66.3-149.175 149.175 0 81.6 66.3 149.175 149.175 149.175 81.6 0 149.175-66.3 149.175-149.175 0-24.225-6.375-48.45-16.575-68.85l70.125-70.125h31.875v-31.875l10.2-10.2H504.9V278.7l10.199-10.2h31.875v-31.875l21.676-21.675V151.2H504.9z"/></g></svg>