<?xml version="1.0" encoding="utf-8"?>
<!-- Generator: Adobe Illustrator 16.0.0, SVG Export Plug-In . SVG Version: 6.00 Build 0)  -->
<!DOCTYPE svg PUBLIC "-//W3C//DTD SVG 1.1//EN" "http://www.w3.org/Graphics/SVG/1.1/DTD/svg11.dtd">
<svg version="1.1" id="Слой_1" xmlns="http://www.w3.org/2000/svg" xmlns:xlink="http://www.w3.org/1999/xlink" x="0px" y="0px"
	 width="505.646px" height="505.708px" viewBox="71.021 143.167 505.646 505.708"
	 enable-background="new 71.021 143.167 505.646 505.708" xml:space="preserve">
<g>
	<path fill="none" stroke="#202830" stroke-width="16" stroke-miterlimit="10" d="M218.025,533.7
		c0,17.85-14.025,31.875-31.875,31.875s-31.875-14.025-31.875-31.875c0-17.851,14.025-31.875,31.875-31.875
		S218.025,517.125,218.025,533.7z"/>
	<path fill="none" stroke="#202830" stroke-width="16" stroke-miterlimit="10" d="M504.9,151.2L297.075,359.025
		c-20.4-10.2-43.35-16.575-68.85-16.575c-81.6,0-149.175,66.3-149.175,149.175c0,81.6,66.3,149.175,149.175,149.175
		c81.6,0,149.175-66.3,149.175-149.175c0-24.225-6.375-48.45-16.575-68.85l70.125-70.125h31.875v-31.875l10.2-10.2H504.9V278.7
		l10.199-10.2h31.875v-31.875l21.676-21.675V151.2H504.9z"/>
</g>
</svg>
